# xmcd
#
# Track frame offsets:
#	150
#	11532
#	25283
#	36693
#	49454
#	59069
#	71215
#	84153
#	94868
#	106804
#	115403
#
# Disc length: 1664 seconds
#
# Revision: 1
# Processed by: cddbd v1.5.2PL0 Copyright (c) Steve Scherf et al.
# Submitted via: audiograbber 1.83.01
#
DISCID=9c067e0b
DTITLE=Linda Martell - Color Me Country
DYEAR=2014
DGENRE=Oldies
TTITLE0=Bad Case Of The Blues
TTITLE1=San Francisco Is A Lonely Town
TTITLE2=The Wedding Cake
TTITLE3=Tender Leaves Of Love
TTITLE4=I Almost Called Your Name
TTITLE5=Color Him Father
TTITLE6=There Never Was A Time
TTITLE7=You're Crying Boy, Crying
TTITLE8=Old Letter Song
TTITLE9=Then I'll Be Over You
TTITLE10=Before The Next Teardrop Falls
EXTD=
EXTT0=
EXTT1=
EXTT2=
EXTT3=
EXTT4=
EXTT5=
EXTT6=
EXTT7=
EXTT8=
EXTT9=
EXTT10=
PLAYORDER=
